<svg xmlns="http://www.w3.org/2000/svg" version="1.1" xmlns:xlink="http://www.w3.org/1999/xlink" xmlns:svgjs="http://svgjs.dev/svgjs" width="1500" height="1500" viewBox="0 0 1500 1500"><rect width="1500" height="1500" fill="#551e19"></rect><g transform="matrix(0.6666666666666666,0,0,0.6666666666666666,249.50657604753854,379.80967741935484)"><svg viewBox="0 0 336 248" data-background-color="#551e19" preserveAspectRatio="xMidYMid meet" height="1107" width="1500" xmlns="http://www.w3.org/2000/svg" xmlns:xlink="http://www.w3.org/1999/xlink"><g id="tight-bounds" transform="matrix(1,0,0,1,0.16600875674393478,0.4000000000000057)"><svg viewBox="0 0 335.66813290118904 247.2" height="247.2" width="335.66813290118904"><g><svg viewBox="0 0 395.52 291.2774088947591" height="247.2" width="335.66813290118904"><g transform="matrix(1,0,0,1,0,146.26988505397136)"><svg viewBox="0 0 395.52 145.0075238407877" height="145.0075238407877" width="395.52"><g id="textblocktransform"><svg viewBox="0 0 395.52 145.0075238407877" height="145.0075238407877" width="395.52" id="textblock"><g><svg viewBox="0 0 395.52 105.80466899577496" height="105.80466899577496" width="395.52"><path d="M394.594 22.693C392.735 11.711 387.435 8.657 387.435 8.657 371.165-2.655 350.86-0.216 332.619 1.409 300.414 1.475 268.339 3.891 236.208 5.187 168.767 5.385 100.749 2.134 33.643 10.151 27.339 12.611-6.54 10.634 1.121 24.099 3.129 29.7 10.456 35.916 10.232 41.056 11.236 41.956 12.631 39.892 13.226 41.188 15.309 44.68 18.711 43.033 21.501 45.097 17.614 50.611 20.403 55.201 23.062 60.012 18.377 61.264 12.371 60.671 9.675 64.822 9.396 67.831 7.89 67.26 6.235 67.128 5.026 67.04 2.59 67.37 2.999 68.314 4.394 71.543-1.594 73.41 2.162 76.573-0.422 80 3.948 82.965 3.353 86.677 3.278 87.424 3.687 88.061 4.338 88.237 7.22 89.181 3.018 91.026 3.464 93.025 33.029 106.687 65.104 97.242 95.394 103.524 103.259 99.131 97.346 105.084 100.489 104.161 102.943 103.085 104.728 107.544 107.499 105.018 107.927 104.293 107.276 102.58 108.8 102.909 109.6 103.085 110.307 103.041 110.418 102.031 110.586 100.515 109.117 101.459 108.726 100.669 112.947 96.671 111.906 106.182 115.866 105.787 115.68 104.622 114.528 102.953 116.889 103.173 119.232 101.503 119.306 100.12 121.389 103.876 121.463 104.688 121.835 105.259 122.43 105.655 128.938 101.569 135.409 107.104 142.233 105.259 146.417 103.239 150.433 106.358 154.672 105.589 156.16 104.974 157.666 103.876 159.098 105.721 176.632 106.116 195.319 104.469 211.943 105.787 256.364 103.326 303.836 106.797 350.674 103.546 361.719 102.294 373.192 100.515 383.958 99.087 383.958 99.087 392.679 95.177 392.679 77.606S394.538 62.23 394.817 48.238C395.096 34.247 396.398 33.676 394.538 22.693Z" opacity="1" fill="#e6b17e" data-fill-palette-color="tertiary"></path><g transform="matrix(1,0,0,1,55.76832,26.068561146666667)"><svg width="283.98335999999995" viewBox="3.44 -38.57 272.96 51.58" height="53.66754670244163" data-palette-color="#551e19"><path d="M33.42-14.16L33.42-14.16Q33.42-11.08 32.5-8.4 31.57-5.71 29.81-3.72 28.05-1.73 25.51-0.59 22.97 0.56 19.75 0.56L19.75 0.56Q17.29 0.56 15.22-0.4 13.16-1.37 11.69-3.37L11.69-3.37 11.69 13.01 3.44 13.01 3.44-28.2 6.62-28.2 10.28-22.07Q10.82-23.61 11.76-24.87 12.7-26.12 13.93-27.01 15.16-27.91 16.64-28.39 18.12-28.88 19.75-28.88L19.75-28.88Q22.97-28.88 25.51-27.73 28.05-26.59 29.81-24.6 31.57-22.61 32.5-19.92 33.42-17.24 33.42-14.16ZM25.05-14.16L25.05-14.16Q25.05-15.23 24.94-16.44 24.83-17.65 24.56-18.85 24.29-20.04 23.82-21.14 23.34-22.24 22.61-23.08 21.88-23.93 20.84-24.43 19.8-24.93 18.43-24.93L18.43-24.93Q17.02-24.93 15.98-24.44 14.94-23.95 14.2-23.11 13.45-22.27 12.98-21.18 12.5-20.09 12.23-18.9 11.96-17.7 11.85-16.48 11.74-15.26 11.74-14.16L11.74-14.16Q11.74-13.18 11.89-12 12.04-10.82 12.35-9.62 12.67-8.42 13.18-7.3 13.7-6.18 14.44-5.3 15.19-4.42 16.17-3.89 17.16-3.37 18.43-3.37L18.43-3.37Q19.82-3.37 20.85-3.87 21.88-4.37 22.61-5.21 23.34-6.05 23.82-7.15 24.29-8.25 24.56-9.45 24.83-10.64 24.94-11.87 25.05-13.09 25.05-14.16ZM67.11-28.2L67.11 0 58.86 0 58.86-3.37Q57.39-1.37 55.33-0.4 53.27 0.56 50.8 0.56L50.8 0.56Q47.58 0.56 45.04-0.59 42.5-1.73 40.74-3.72 38.99-5.71 38.06-8.4 37.13-11.08 37.13-14.16L37.13-14.16Q37.13-17.24 38.06-19.92 38.99-22.61 40.74-24.6 42.5-26.59 45.04-27.73 47.58-28.88 50.8-28.88L50.8-28.88Q52.44-28.88 53.92-28.39 55.39-27.91 56.63-27.01 57.86-26.12 58.8-24.87 59.74-23.61 60.28-22.07L60.28-22.07 63.94-28.2 67.11-28.2ZM58.81-14.16L58.81-14.16Q58.81-15.26 58.7-16.48 58.59-17.7 58.32-18.9 58.05-20.09 57.58-21.18 57.1-22.27 56.36-23.11 55.61-23.95 54.56-24.44 53.51-24.93 52.12-24.93L52.12-24.93Q50.73-24.93 49.7-24.43 48.68-23.93 47.95-23.08 47.21-22.24 46.74-21.14 46.26-20.04 45.99-18.85 45.73-17.65 45.62-16.44 45.51-15.23 45.51-14.16L45.51-14.16Q45.51-13.09 45.62-11.87 45.73-10.64 45.99-9.45 46.26-8.25 46.74-7.15 47.21-6.05 47.95-5.21 48.68-4.37 49.7-3.87 50.73-3.37 52.12-3.37L52.12-3.37Q53.39-3.37 54.38-3.89 55.37-4.42 56.11-5.3 56.86-6.18 57.37-7.3 57.88-8.42 58.2-9.62 58.52-10.82 58.66-12 58.81-13.18 58.81-14.16ZM98.26-9.01L98.26-9.01Q98.26-7.15 97.72-5.71 97.19-4.27 96.26-3.21 95.33-2.15 94.06-1.43 92.79-0.71 91.34-0.27 89.89 0.17 88.3 0.37 86.71 0.56 85.15 0.56L85.15 0.56Q83.05 0.56 81.44 0.29 79.83 0.02 78.36-0.57 76.9-1.17 75.45-2.12 73.99-3.08 72.21-4.44L72.21-4.44 77.02-8.37Q77.68-7.13 78.77-6.12 79.85-5.1 81.03-4.37 82.2-3.64 83.3-3.25 84.39-2.86 85.08-2.86L85.08-2.86Q85.64-2.86 86.35-2.89 87.06-2.93 87.79-3.04 88.52-3.15 89.23-3.37 89.94-3.59 90.49-3.97 91.04-4.35 91.36-4.92 91.69-5.49 91.69-6.3L91.69-6.3Q91.69-7.13 91.27-7.75 90.84-8.37 90.16-8.84 89.47-9.3 88.59-9.62 87.71-9.94 86.82-10.18 85.93-10.42 85.1-10.61 84.27-10.79 83.66-10.96L83.66-10.96Q82.54-11.28 81.29-11.61 80.05-11.94 78.83-12.37 77.61-12.79 76.5-13.38 75.39-13.96 74.54-14.78 73.7-15.6 73.2-16.71 72.7-17.82 72.7-19.31L72.7-19.31Q72.7-22.05 73.79-23.89 74.87-25.73 76.66-26.84 78.44-27.95 80.71-28.42 82.98-28.88 85.32-28.88L85.32-28.88Q86.93-28.88 88.72-28.55 90.5-28.22 92.18-27.58 93.87-26.93 95.33-26 96.8-25.07 97.77-23.88L97.77-23.88 92.96-19.92Q92.43-21.39 91.56-22.44 90.69-23.49 89.68-24.16 88.67-24.83 87.6-25.15 86.54-25.46 85.64-25.46L85.64-25.46Q84.76-25.46 83.66-25.39 82.56-25.32 81.6-24.98 80.63-24.63 79.96-23.94 79.29-23.24 79.29-22.02L79.29-22.02Q79.29-21.14 79.69-20.52 80.1-19.9 80.76-19.45 81.42-18.99 82.26-18.69 83.1-18.38 83.98-18.15 84.86-17.92 85.69-17.75 86.52-17.58 87.18-17.38L87.18-17.38Q88.3-17.07 89.56-16.74 90.82-16.41 92.04-15.98 93.26-15.55 94.39-14.98 95.53-14.4 96.38-13.57 97.24-12.74 97.75-11.63 98.26-10.52 98.26-9.01ZM114.08-24.93L114.08 0 105.8 0 105.8-24.93 100.68-24.93 100.68-28.2 105.8-28.2 105.8-38.57 114.08-38.57 114.08-28.2 122.62-28.2 122.62-24.93 114.08-24.93ZM151.24-21.22L151.24-21.22 147.67-19.8Q146.82-22.49 144.81-23.93 142.81-25.37 140-25.37L140-25.37Q138.49-25.37 137.31-24.89 136.12-24.41 135.23-23.58 134.34-22.75 133.72-21.66 133.1-20.56 132.7-19.31 132.31-18.07 132.14-16.74 131.97-15.41 131.97-14.16L131.97-14.16Q131.97-12.82 132.12-11.45 132.27-10.08 132.62-8.83 132.97-7.57 133.56-6.48 134.15-5.4 135.04-4.59 135.93-3.78 137.16-3.32 138.39-2.86 140-2.86L140-2.86Q141.3-2.86 142.47-3.25 143.64-3.64 144.62-4.35 145.6-5.05 146.35-6.03 147.11-7.01 147.55-8.2L147.55-8.2 151.14-6.88Q150.33-4.96 149-3.55 147.67-2.15 145.99-1.23 144.3-0.32 142.37 0.12 140.44 0.56 138.47 0.56L138.47 0.56Q135.27 0.56 132.53-0.52 129.8-1.61 127.81-3.58 125.82-5.54 124.7-8.24 123.57-10.94 123.57-14.16L123.57-14.16Q123.57-17.41 124.68-20.12 125.8-22.83 127.77-24.78 129.75-26.73 132.49-27.81 135.22-28.88 138.47-28.88L138.47-28.88Q140.52-28.88 142.47-28.43 144.42-27.98 146.1-27.04 147.77-26.1 149.1-24.66 150.43-23.22 151.24-21.22ZM184.95-16.16L184.95-16.16Q184.95-13.31 184.25-10.21 183.56-7.1 182.31-4.13 181.07-1.15 179.33 1.48 177.6 4.1 175.52 6.01L175.52 6.01 172.42 4.32Q173.08 3.1 173.67 1.59 174.26 0.07 174.73-1.62 175.21-3.32 175.59-5.13 175.96-6.93 176.22-8.7 176.48-10.47 176.61-12.15 176.75-13.82 176.75-15.26L176.75-15.26Q176.75-16.21 176.67-17.3 176.6-18.38 176.37-19.47 176.13-20.56 175.74-21.56 175.35-22.56 174.71-23.32 174.06-24.07 173.14-24.54 172.23-25 170.98-25L170.98-25Q169.76-25 168.81-24.45 167.86-23.9 167.13-23.01 166.39-22.12 165.87-20.97 165.34-19.82 165.01-18.62 164.68-17.41 164.54-16.24 164.39-15.06 164.39-14.14L164.39-14.14 164.39 0 156.12 0 156.12-38.57 164.37-38.57 164.37-24.05Q165.95-26.37 168.26-27.62 170.57-28.88 173.38-28.88L173.38-28.88Q176.31-28.88 178.48-27.93 180.65-26.98 182.09-25.28 183.53-23.58 184.24-21.25 184.95-18.92 184.95-16.16ZM197.18-13.38L197.18-13.38Q198.69-13.04 200.2-12.84 201.72-12.65 203.26-12.65L203.26-12.65Q204.87-12.65 206.25-12.95 207.63-13.26 208.64-13.98 209.65-14.7 210.24-15.89 210.82-17.09 210.82-18.87L210.82-18.87Q210.82-20.31 210.43-21.51 210.04-22.71 209.27-23.56 208.51-24.41 207.38-24.89 206.26-25.37 204.77-25.37L204.77-25.37Q203.38-25.37 202.27-24.85 201.16-24.34 200.31-23.47 199.47-22.61 198.87-21.46 198.28-20.31 197.89-19.07 197.49-17.82 197.32-16.55 197.15-15.28 197.15-14.16L197.15-14.16Q197.15-13.96 197.15-13.77 197.15-13.57 197.18-13.38ZM217.51-18.95L217.51-18.95Q217.51-17.21 216.95-15.86 216.39-14.5 215.43-13.48 214.46-12.45 213.19-11.74 211.92-11.04 210.48-10.58 209.04-10.13 207.52-9.94 205.99-9.74 204.55-9.74L204.55-9.74Q202.72-9.74 200.94-10 199.15-10.25 197.42-10.82L197.42-10.82Q197.69-9.2 198.28-7.75 198.86-6.3 199.84-5.21 200.82-4.13 202.24-3.49 203.67-2.86 205.62-2.86L205.62-2.86Q206.92-2.86 208.09-3.25 209.26-3.64 210.24-4.35 211.22-5.05 211.96-6.03 212.7-7.01 213.17-8.2L213.17-8.2 216.73-6.88Q215.93-4.96 214.52-3.55 213.12-2.15 211.35-1.23 209.58-0.32 207.59 0.12 205.6 0.56 203.65 0.56L203.65 0.56Q200.42 0.56 197.69-0.52 194.96-1.61 192.98-3.56 191-5.52 189.88-8.23 188.75-10.94 188.75-14.16L188.75-14.16Q188.75-17.38 189.88-20.09 191-22.8 192.98-24.76 194.96-26.71 197.69-27.8 200.42-28.88 203.65-28.88L203.65-28.88Q205.21-28.88 206.85-28.66 208.48-28.44 210.02-27.97 211.56-27.49 212.92-26.73 214.29-25.98 215.3-24.87 216.32-23.75 216.92-22.29 217.51-20.83 217.51-18.95ZM246.93-9.01L246.93-9.01Q246.93-7.15 246.39-5.71 245.86-4.27 244.93-3.21 244-2.15 242.73-1.43 241.46-0.71 240.01-0.27 238.56 0.17 236.97 0.37 235.38 0.56 233.82 0.56L233.82 0.56Q231.72 0.56 230.11 0.29 228.5 0.02 227.03-0.57 225.57-1.17 224.12-2.12 222.66-3.08 220.88-4.44L220.88-4.44 225.69-8.37Q226.35-7.13 227.44-6.12 228.52-5.1 229.69-4.37 230.87-3.64 231.96-3.25 233.06-2.86 233.75-2.86L233.75-2.86Q234.31-2.86 235.02-2.89 235.72-2.93 236.46-3.04 237.19-3.15 237.9-3.37 238.61-3.59 239.15-3.97 239.7-4.35 240.03-4.92 240.36-5.49 240.36-6.3L240.36-6.3Q240.36-7.13 239.94-7.75 239.51-8.37 238.83-8.84 238.14-9.3 237.26-9.62 236.38-9.94 235.49-10.18 234.6-10.42 233.77-10.61 232.94-10.79 232.33-10.96L232.33-10.96Q231.21-11.28 229.96-11.61 228.72-11.94 227.5-12.37 226.28-12.79 225.17-13.38 224.05-13.96 223.21-14.78 222.37-15.6 221.87-16.71 221.37-17.82 221.37-19.31L221.37-19.31Q221.37-22.05 222.46-23.89 223.54-25.73 225.32-26.84 227.11-27.95 229.38-28.42 231.65-28.88 233.99-28.88L233.99-28.88Q235.6-28.88 237.38-28.55 239.17-28.22 240.85-27.58 242.54-26.93 244-26 245.47-25.07 246.44-23.88L246.44-23.88 241.63-19.92Q241.1-21.39 240.23-22.44 239.36-23.49 238.35-24.16 237.34-24.83 236.27-25.15 235.21-25.46 234.31-25.46L234.31-25.46Q233.43-25.46 232.33-25.39 231.23-25.32 230.27-24.98 229.3-24.63 228.63-23.94 227.96-23.24 227.96-22.02L227.96-22.02Q227.96-21.14 228.36-20.52 228.77-19.9 229.43-19.45 230.09-18.99 230.93-18.69 231.77-18.38 232.65-18.15 233.53-17.92 234.36-17.75 235.19-17.58 235.85-17.38L235.85-17.38Q236.97-17.07 238.23-16.74 239.48-16.41 240.71-15.98 241.93-15.55 243.06-14.98 244.2-14.4 245.05-13.57 245.91-12.74 246.42-11.63 246.93-10.52 246.93-9.01ZM276.4-9.01L276.4-9.01Q276.4-7.15 275.86-5.71 275.32-4.27 274.39-3.21 273.47-2.15 272.2-1.43 270.93-0.71 269.47-0.27 268.02 0.17 266.44 0.37 264.85 0.56 263.29 0.56L263.29 0.56Q261.19 0.56 259.57 0.29 257.96 0.02 256.5-0.57 255.03-1.17 253.58-2.12 252.13-3.08 250.35-4.44L250.35-4.44 255.16-8.37Q255.81-7.13 256.9-6.12 257.99-5.1 259.16-4.37 260.33-3.64 261.43-3.25 262.53-2.86 263.21-2.86L263.21-2.86Q263.77-2.86 264.48-2.89 265.19-2.93 265.92-3.04 266.65-3.15 267.36-3.37 268.07-3.59 268.62-3.97 269.17-4.35 269.5-4.92 269.83-5.49 269.83-6.3L269.83-6.3Q269.83-7.13 269.4-7.75 268.97-8.37 268.29-8.84 267.61-9.3 266.73-9.62 265.85-9.94 264.96-10.18 264.07-10.42 263.24-10.61 262.41-10.79 261.8-10.96L261.8-10.96Q260.67-11.28 259.43-11.61 258.18-11.94 256.96-12.37 255.74-12.79 254.63-13.38 253.52-13.96 252.68-14.78 251.84-15.6 251.33-16.71 250.83-17.82 250.83-19.31L250.83-19.31Q250.83-22.05 251.92-23.89 253.01-25.73 254.79-26.84 256.57-27.95 258.84-28.42 261.11-28.88 263.46-28.88L263.46-28.88Q265.07-28.88 266.85-28.55 268.63-28.22 270.32-27.58 272-26.93 273.47-26 274.93-25.07 275.91-23.88L275.91-23.88 271.1-19.92Q270.56-21.39 269.69-22.44 268.83-23.49 267.81-24.16 266.8-24.83 265.74-25.15 264.68-25.46 263.77-25.46L263.77-25.46Q262.9-25.46 261.8-25.39 260.7-25.32 259.73-24.98 258.77-24.63 258.1-23.94 257.43-23.24 257.43-22.02L257.43-22.02Q257.43-21.14 257.83-20.52 258.23-19.9 258.89-19.45 259.55-18.99 260.39-18.69 261.23-18.38 262.11-18.15 262.99-17.92 263.82-17.75 264.65-17.58 265.31-17.38L265.31-17.38Q266.44-17.07 267.69-16.74 268.95-16.41 270.17-15.98 271.39-15.55 272.53-14.98 273.66-14.4 274.52-13.57 275.37-12.74 275.88-11.63 276.4-10.52 276.4-9.01Z" opacity="1" transform="matrix(1,0,0,1,0,0)" fill="#551e19" class="wordmark-text-0" data-fill-palette-color="quaternary" id="text-0"></path></svg></g></svg></g><g transform="matrix(1,0,0,1,0,118.47428875110057)"><svg viewBox="0 0 395.52 26.533235089687146" height="26.533235089687146" width="395.52"><g transform="matrix(1,0,0,1,0,0)"><svg width="395.52" viewBox="3 -37.7 723.71 48.550000000000004" height="26.533235089687146" data-palette-color="#e6b17e"><path d="M3-34.55L9.35-34.55 9.35-5.25 20.5-5.25 19.8 0 3 0 3-34.55ZM61.04-13.85Q61.04-13.4 60.89-11.3L60.89-11.3 47.24-11.3Q47.44-7.2 48.67-5.58 49.89-3.95 52.14-3.95L52.14-3.95Q53.69-3.95 54.94-4.48 56.19-5 57.64-6.15L57.64-6.15 60.19-2.65Q56.69 0.75 51.79 0.75L51.79 0.75Q46.59 0.75 43.82-2.85 41.04-6.45 41.04-13L41.04-13Q41.04-19.55 43.69-23.35 46.34-27.15 51.19-27.15L51.19-27.15Q55.84-27.15 58.44-23.78 61.04-20.4 61.04-13.85L61.04-13.85ZM55.04-15.3L55.04-15.65Q55.04-19.4 54.14-21.13 53.24-22.85 51.24-22.85L51.24-22.85Q49.39-22.85 48.42-21.18 47.44-19.5 47.24-15.3L47.24-15.3 55.04-15.3ZM94.98-5L97.13-1.2Q94.68 0.75 91.38 0.75L91.38 0.75Q87.93 0.75 86.13-1.23 84.33-3.2 84.33-6.6L84.33-6.6 84.33-22 81.23-22 81.23-26.45 84.33-26.45 84.33-32.3 90.48-33.05 90.48-26.45 95.48-26.45 94.88-22 90.48-22 90.48-6.6Q90.48-4.2 92.53-4.2L92.53-4.2Q93.18-4.2 93.68-4.38 94.18-4.55 94.98-5L94.98-5ZM122.42-21.05L118.37-21.05 117.67-34.55 123.12-34.55 122.42-21.05ZM154.16-27.15Q158.86-27.15 162.11-24.05L162.11-24.05 159.76-20.7Q158.36-21.7 157.11-22.2 155.86-22.7 154.56-22.7L154.56-22.7Q153.11-22.7 152.29-21.93 151.46-21.15 151.46-19.8L151.46-19.8Q151.46-18.45 152.39-17.63 153.31-16.8 156.11-15.7L156.11-15.7Q159.56-14.35 161.21-12.5 162.86-10.65 162.86-7.55L162.86-7.55Q162.86-3.7 160.16-1.48 157.46 0.75 153.31 0.75L153.31 0.75Q150.61 0.75 148.34-0.23 146.06-1.2 144.36-2.95L144.36-2.95 147.36-6.25Q150.16-3.8 153.06-3.8L153.06-3.8Q154.71-3.8 155.66-4.67 156.61-5.55 156.61-7.1L156.61-7.1Q156.61-8.25 156.21-8.97 155.81-9.7 154.81-10.33 153.81-10.95 151.81-11.7L151.81-11.7Q148.36-13.05 146.89-14.85 145.41-16.65 145.41-19.45L145.41-19.45Q145.41-22.8 147.79-24.98 150.16-27.15 154.16-27.15L154.16-27.15ZM223.04-27.15Q225.19-27.15 226.94-26.43 228.69-25.7 230.29-24.15L230.29-24.15 227.64-20.65Q226.54-21.55 225.57-21.98 224.59-22.4 223.44-22.4L223.44-22.4Q221.19-22.4 220.04-20.28 218.89-18.15 218.89-13.1L218.89-13.1Q218.89-8.2 220.07-6.2 221.24-4.2 223.44-4.2L223.44-4.2Q224.54-4.2 225.44-4.6 226.34-5 227.54-5.85L227.54-5.85 230.29-2.3Q227.09 0.75 223.14 0.75L223.14 0.75Q218.04 0.75 215.22-2.73 212.39-6.2 212.39-13L212.39-13Q212.39-17.4 213.69-20.6 214.99-23.8 217.42-25.48 219.84-27.15 223.04-27.15L223.04-27.15ZM264.18-27.15Q267.03-27.15 268.68-25.1 270.33-23.05 270.33-19.6L270.33-19.6 270.33 0 264.18 0 264.18-18.9Q264.18-20.8 263.66-21.63 263.13-22.45 262.13-22.45L262.13-22.45Q260.03-22.45 257.98-18.5L257.98-18.5 257.98 0 251.83 0 251.83-37 257.98-37.65 257.98-23.3Q259.23-25.25 260.71-26.2 262.18-27.15 264.18-27.15L264.18-27.15ZM313.22-13.85Q313.22-13.4 313.07-11.3L313.07-11.3 299.42-11.3Q299.62-7.2 300.85-5.58 302.07-3.95 304.32-3.95L304.32-3.95Q305.87-3.95 307.12-4.48 308.37-5 309.82-6.15L309.82-6.15 312.37-2.65Q308.87 0.75 303.97 0.75L303.97 0.75Q298.77 0.75 296-2.85 293.22-6.45 293.22-13L293.22-13Q293.22-19.55 295.87-23.35 298.52-27.15 303.37-27.15L303.37-27.15Q308.02-27.15 310.62-23.78 313.22-20.4 313.22-13.85L313.22-13.85ZM307.22-15.3L307.22-15.65Q307.22-19.4 306.32-21.13 305.42-22.85 303.42-22.85L303.42-22.85Q301.57-22.85 300.6-21.18 299.62-19.5 299.42-15.3L299.42-15.3 307.22-15.3ZM345.51-27.15Q347.66-27.15 349.41-26.43 351.16-25.7 352.76-24.15L352.76-24.15 350.11-20.65Q349.01-21.55 348.04-21.98 347.06-22.4 345.91-22.4L345.91-22.4Q343.66-22.4 342.51-20.28 341.36-18.15 341.36-13.1L341.36-13.1Q341.36-8.2 342.54-6.2 343.71-4.2 345.91-4.2L345.91-4.2Q347.01-4.2 347.91-4.6 348.81-5 350.01-5.85L350.01-5.85 352.76-2.3Q349.56 0.75 345.61 0.75L345.61 0.75Q340.51 0.75 337.69-2.73 334.86-6.2 334.86-13L334.86-13Q334.86-17.4 336.16-20.6 337.46-23.8 339.89-25.48 342.31-27.15 345.51-27.15L345.51-27.15ZM374.3-37.05L380.45-37.7 380.45 0 374.3 0 374.3-37.05ZM387.8-26.45L393.8-26.45 386.8-14.75 394.4 0 387.8 0 380.7-14.45 387.8-26.45ZM454.93-5L457.08-1.2Q454.63 0.75 451.33 0.75L451.33 0.75Q447.88 0.75 446.08-1.23 444.28-3.2 444.28-6.6L444.28-6.6 444.28-22 441.18-22 441.18-26.45 444.28-26.45 444.28-32.3 450.43-33.05 450.43-26.45 455.43-26.45 454.83-22 450.43-22 450.43-6.6Q450.43-4.2 452.48-4.2L452.48-4.2Q453.13-4.2 453.63-4.38 454.13-4.55 454.93-5L454.93-5ZM490.47-27.15Q493.32-27.15 494.97-25.1 496.62-23.05 496.62-19.6L496.62-19.6 496.62 0 490.47 0 490.47-18.9Q490.47-20.8 489.95-21.63 489.42-22.45 488.42-22.45L488.42-22.45Q486.32-22.45 484.27-18.5L484.27-18.5 484.27 0 478.12 0 478.12-37 484.27-37.65 484.27-23.3Q485.52-25.25 487-26.2 488.47-27.15 490.47-27.15L490.47-27.15ZM539.51-13.85Q539.51-13.4 539.36-11.3L539.36-11.3 525.71-11.3Q525.91-7.2 527.14-5.58 528.36-3.95 530.61-3.95L530.61-3.95Q532.16-3.95 533.41-4.48 534.66-5 536.11-6.15L536.11-6.15 538.66-2.65Q535.16 0.75 530.26 0.75L530.26 0.75Q525.06 0.75 522.29-2.85 519.51-6.45 519.51-13L519.51-13Q519.51-19.55 522.16-23.35 524.81-27.15 529.66-27.15L529.66-27.15Q534.31-27.15 536.91-23.78 539.51-20.4 539.51-13.85L539.51-13.85ZM533.51-15.3L533.51-15.65Q533.51-19.4 532.61-21.13 531.71-22.85 529.71-22.85L529.71-22.85Q527.86-22.85 526.89-21.18 525.91-19.5 525.71-15.3L525.71-15.3 533.51-15.3ZM602.84-27.15Q606.74-27.15 608.74-23.58 610.74-20 610.74-13.3L610.74-13.3Q610.74-6.8 608.47-3.03 606.19 0.75 602.14 0.75L602.14 0.75Q598.94 0.75 596.79-2.1L596.79-2.1 596.79 10.15 590.64 10.85 590.64-26.45 596.09-26.45 596.34-23.25Q597.64-25.25 599.24-26.2 600.84-27.15 602.84-27.15L602.84-27.15ZM600.49-3.95Q602.39-3.95 603.39-6.13 604.39-8.3 604.39-13.25L604.39-13.25Q604.39-18.45 603.54-20.5 602.69-22.55 600.89-22.55L600.89-22.55Q598.59-22.55 596.79-19.25L596.79-19.25 596.79-6.45Q598.39-3.95 600.49-3.95L600.49-3.95ZM650.73-6.4Q650.73-5.1 651.08-4.48 651.43-3.85 652.23-3.45L652.23-3.45 650.98 0.65Q648.93 0.4 647.71-0.45 646.48-1.3 645.88-3.05L645.88-3.05Q643.58 0.75 639.43 0.75L639.43 0.75Q636.13 0.75 634.18-1.48 632.23-3.7 632.23-7.4L632.23-7.4Q632.23-11.7 634.91-13.95 637.58-16.2 642.68-16.2L642.68-16.2 644.73-16.2 644.73-18.05Q644.73-20.55 643.86-21.58 642.98-22.6 641.03-22.6L641.03-22.6Q638.68-22.6 635.18-21.3L635.18-21.3 633.78-25.3Q635.78-26.2 637.93-26.68 640.08-27.15 642.03-27.15L642.03-27.15Q650.73-27.15 650.73-18.35L650.73-18.35 650.73-6.4ZM641.08-3.7Q643.48-3.7 644.73-7L644.73-7 644.73-12.55 643.28-12.55Q640.73-12.55 639.56-11.4 638.38-10.25 638.38-7.85L638.38-7.85Q638.38-5.8 639.08-4.75 639.78-3.7 641.08-3.7L641.08-3.7ZM682.37-27.15Q687.07-27.15 690.32-24.05L690.32-24.05 687.97-20.7Q686.57-21.7 685.32-22.2 684.07-22.7 682.77-22.7L682.77-22.7Q681.32-22.7 680.5-21.93 679.67-21.15 679.67-19.8L679.67-19.8Q679.67-18.45 680.6-17.63 681.52-16.8 684.32-15.7L684.32-15.7Q687.77-14.35 689.42-12.5 691.07-10.65 691.07-7.55L691.07-7.55Q691.07-3.7 688.37-1.48 685.67 0.75 681.52 0.75L681.52 0.75Q678.82 0.75 676.55-0.23 674.27-1.2 672.57-2.95L672.57-2.95 675.57-6.25Q678.37-3.8 681.27-3.8L681.27-3.8Q682.92-3.8 683.87-4.67 684.82-5.55 684.82-7.1L684.82-7.1Q684.82-8.25 684.42-8.97 684.02-9.7 683.02-10.33 682.02-10.95 680.02-11.7L680.02-11.7Q676.57-13.05 675.1-14.85 673.62-16.65 673.62-19.45L673.62-19.45Q673.62-22.8 676-24.98 678.37-27.15 682.37-27.15L682.37-27.15ZM724.56-5L726.71-1.2Q724.26 0.75 720.96 0.75L720.96 0.75Q717.51 0.75 715.71-1.23 713.91-3.2 713.91-6.6L713.91-6.6 713.91-22 710.81-22 710.81-26.45 713.91-26.45 713.91-32.3 720.06-33.05 720.06-26.45 725.06-26.45 724.46-22 720.06-22 720.06-6.6Q720.06-4.2 722.11-4.2L722.11-4.2Q722.76-4.2 723.26-4.38 723.76-4.55 724.56-5L724.56-5Z" opacity="1" transform="matrix(1,0,0,1,0,0)" fill="#e6b17e" class="slogan-text-1" data-fill-palette-color="secondary" id="text-1"></path></svg></g></svg></g></svg></g></svg></g><g transform="matrix(1,0,0,1,154.4781926515995,0)"><svg viewBox="0 0 86.563614696801 133.60026529864575" height="133.60026529864575" width="86.563614696801"><g><svg xmlns="http://www.w3.org/2000/svg" xmlns:xlink="http://www.w3.org/1999/xlink" version="1.1" x="0" y="0" viewBox="17.604 0 64.7930035411836 100.00001147038654" enable-background="new 0 0 100 100" xml:space="preserve" id="icon-0" width="86.563614696801" height="133.60026529864575" class="icon-icon-0" data-fill-palette-color="accent"><g fill="#99592a" data-fill-palette-color="accent"><path d="M71.977 74.531C68.433 72.021 68.14 70.693 68.14 68.78S67.549 65.089 66.075 63.614C64.605 62.139 62.237 57.413 62.237 45.457S65.782 26.273 65.782 26.273H74.194S76.552 5.902 78.618 0.294H67.7S66.963 5.609 66.963 8.561H62.534V0H52.646V8.415H47.27V0H37.378V8.562H32.954C32.954 5.61 32.222 0.295 32.222 0.295H21.294C23.364 5.903 25.723 26.274 25.723 26.274H34.136S37.681 33.503 37.681 45.458 35.318 62.14 33.843 63.615 31.773 66.867 31.773 68.781C31.773 70.694 31.48 72.022 27.935 74.532 24.4 77.042 20.704 79.405 20.704 83.389S24.547 87.676 26.168 87.676H73.75C75.371 87.676 79.214 87.373 79.214 83.389S75.517 77.041 71.977 74.531" fill="#99592a" data-fill-palette-color="accent"></path><g fill="#99592a" data-fill-palette-color="accent"><path d="M21.148 100A3.54 3.54 0 0 1 17.604 96.465 3.545 3.545 0 0 1 21.148 92.92H78.852A3.54 3.54 0 0 1 82.397 96.465 3.536 3.536 0 0 1 78.852 100z" fill="#99592a" data-fill-palette-color="accent"></path></g></g></svg></g></svg></g><g></g></svg></g><defs></defs></svg><rect width="335.66813290118904" height="247.2" fill="none" stroke="none" visibility="hidden"></rect></g></svg></g></svg>