<svg xmlns="http://www.w3.org/2000/svg" version="1.1" xmlns:xlink="http://www.w3.org/1999/xlink" xmlns:svgjs="http://svgjs.dev/svgjs" width="128" height="128" viewBox="0 0 128 128"><g transform="matrix(0.5202020202020202,0,0,0.5202020202020202,30.634578368694882,12.221578124999994)"><svg viewBox="0 0 62 96" data-background-color="#551e19" preserveAspectRatio="xMidYMid meet" height="198" width="128" xmlns="http://www.w3.org/2000/svg" xmlns:xlink="http://www.w3.org/1999/xlink"><g id="tight-bounds" transform="matrix(1,0,0,1,0.06749969249860044,0.25950000000000273)"><svg viewBox="0 0 61.865000615002806 95.481" height="95.481" width="61.865000615002806"><g><svg viewBox="0 0 61.865000615002806 95.481" height="95.481" width="61.865000615002806"><g><svg viewBox="0 0 61.865000615002806 95.481" height="95.481" width="61.865000615002806"><g id="textblocktransform"><svg viewBox="0 0 61.865000615002806 95.481" height="95.481" width="61.865000615002806" id="textblock"><g><svg viewBox="0 0 61.865000615002806 95.481" height="95.481" width="61.865000615002806"><g><svg viewBox="0 0 61.865000615002806 95.481" height="95.481" width="61.865000615002806"><g><svg xmlns="http://www.w3.org/2000/svg" xmlns:xlink="http://www.w3.org/1999/xlink" version="1.1" x="0" y="0" viewBox="17.604 0 64.7930035411836 100.00001147038654" enable-background="new 0 0 100 100" xml:space="preserve" id="icon-0" width="61.865000615002806" height="95.481" class="icon-icon-0" data-fill-palette-color="accent"><g fill="#99592a" data-fill-palette-color="accent"><path d="M71.977 74.531C68.433 72.021 68.14 70.693 68.14 68.78S67.549 65.089 66.075 63.614C64.605 62.139 62.237 57.413 62.237 45.457S65.782 26.273 65.782 26.273H74.194S76.552 5.902 78.618 0.294H67.7S66.963 5.609 66.963 8.561H62.534V0H52.646V8.415H47.27V0H37.378V8.562H32.954C32.954 5.61 32.222 0.295 32.222 0.295H21.294C23.364 5.903 25.723 26.274 25.723 26.274H34.136S37.681 33.503 37.681 45.458 35.318 62.14 33.843 63.615 31.773 66.867 31.773 68.781C31.773 70.694 31.48 72.022 27.935 74.532 24.4 77.042 20.704 79.405 20.704 83.389S24.547 87.676 26.168 87.676H73.75C75.371 87.676 79.214 87.373 79.214 83.389S75.517 77.041 71.977 74.531" fill="#99592a" data-fill-palette-color="accent"></path><g fill="#99592a" data-fill-palette-color="accent"><path d="M21.148 100A3.54 3.54 0 0 1 17.604 96.465 3.545 3.545 0 0 1 21.148 92.92H78.852A3.54 3.54 0 0 1 82.397 96.465 3.536 3.536 0 0 1 78.852 100z" fill="#99592a" data-fill-palette-color="accent"></path></g></g></svg></g></svg></g></svg></g></svg></g></svg></g><g></g></svg></g><defs></defs></svg><rect width="61.865000615002806" height="95.481" fill="none" stroke="none" visibility="hidden"></rect></g></svg></g></svg>